<?xml version="1.0" encoding="UTF-8"?>
<svg width="512" height="512" viewBox="0 0 512 512" fill="none" xmlns="http://www.w3.org/2000/svg">
  <!-- Background circle -->
  <circle cx="256" cy="256" r="240" fill="#4A90E2"/>
  
  <!-- Question mark -->
  <path d="M256 80C179.307 80 120 139.307 120 216C120 232.837 133.163 246 150 246C166.837 246 180 232.837 180 216C180 197.163 197.163 180 216 180H296C314.837 180 332 197.163 332 216C332 232.837 345.163 246 362 246C378.837 246 392 232.837 392 216C392 139.307 332.693 80 256 80Z" fill="white"/>
  <path d="M256 320C242.745 320 232 330.745 232 344C232 357.255 242.745 368 256 368C269.255 368 280 357.255 280 344C280 330.745 269.255 320 256 320Z" fill="white"/>
</svg> 